<svg width="54" height="17" viewBox="0 0 54 17" fill="none" xmlns="http://www.w3.org/2000/svg">
<path d="M4.386 16.336C3.586 16.336 2.81 16.24 2.058 16.048C1.306 15.872 0.674 15.624 0.162 15.304L0.69 13.552C1.778 14.208 3.026 14.536 4.434 14.536C6.13 14.536 6.978 13.912 6.978 12.664C6.978 12.136 6.826 11.736 6.522 11.464C6.234 11.192 5.714 10.976 4.962 10.816L3.786 10.552C2.618 10.312 1.77 9.92 1.242 9.376C0.73 8.816 0.474 8.064 0.474 7.12C0.474 6 0.874 5.112 1.674 4.456C2.474 3.8 3.546 3.472 4.89 3.472C5.706 3.472 6.41 3.536 7.002 3.664C7.594 3.792 8.178 4 8.754 4.288L8.298 5.944C7.802 5.704 7.29 5.536 6.762 5.44C6.25 5.328 5.674 5.272 5.034 5.272C4.25 5.272 3.634 5.424 3.186 5.728C2.738 6.032 2.514 6.464 2.514 7.024C2.514 7.504 2.666 7.872 2.97 8.128C3.274 8.384 3.818 8.6 4.602 8.776L5.514 8.992C6.426 9.2 7.138 9.456 7.65 9.76C8.162 10.064 8.522 10.448 8.73 10.912C8.954 11.376 9.066 11.976 9.066 12.712C9.066 13.88 8.666 14.776 7.866 15.4C7.066 16.024 5.906 16.336 4.386 16.336ZM16.5336 16.192C15.1576 16.192 14.1816 15.88 13.6056 15.256C13.0296 14.616 12.7416 13.56 12.7416 12.088V5.44H10.5576V3.88L11.9736 3.808C12.3256 3.776 12.5736 3.704 12.7176 3.592C12.8616 3.48 12.9416 3.272 12.9576 2.968L13.1496 0.256H14.8776V3.784H18.8136V5.44H14.8776V12.256C14.8776 13.104 15.0216 13.688 15.3096 14.008C15.6136 14.312 16.1736 14.464 16.9896 14.464C17.2296 14.464 17.4696 14.456 17.7096 14.44C17.9496 14.408 18.2616 14.36 18.6456 14.296V15.952C18.1016 16.112 17.3976 16.192 16.5336 16.192ZM26.148 16.336C24.42 16.336 23.092 15.784 22.164 14.68C21.252 13.56 20.796 11.96 20.796 9.88C20.796 7.784 21.252 6.192 22.164 5.104C23.076 4.016 24.404 3.472 26.148 3.472C27.876 3.472 29.196 4.016 30.108 5.104C31.02 6.192 31.476 7.784 31.476 9.88C31.476 11.96 31.012 13.56 30.084 14.68C29.172 15.784 27.86 16.336 26.148 16.336ZM26.148 14.536C27.204 14.536 27.98 14.16 28.476 13.408C28.988 12.64 29.244 11.464 29.244 9.88C29.244 8.296 28.988 7.136 28.476 6.4C27.98 5.648 27.204 5.272 26.148 5.272C25.092 5.272 24.308 5.648 23.796 6.4C23.284 7.136 23.028 8.296 23.028 9.88C23.028 11.464 23.284 12.64 23.796 13.408C24.308 14.16 25.092 14.536 26.148 14.536ZM34.7816 16V3.784H36.5576L36.7976 6.016C37.7096 4.432 39.1816 3.64 41.2136 3.64H41.5016V5.728H41.2376C40.2296 5.728 39.3896 5.856 38.7176 6.112C38.0456 6.352 37.4536 6.736 36.9416 7.264V16H34.7816ZM48.8886 16.336C45.1446 16.336 43.2726 14.224 43.2726 10C43.2726 7.904 43.7286 6.296 44.6406 5.176C45.5686 4.04 46.8806 3.472 48.5766 3.472C50.2246 3.472 51.4646 4.008 52.2966 5.08C53.1446 6.152 53.5686 7.736 53.5686 9.832V10.648H45.4326C45.4966 11.976 45.8166 12.944 46.3926 13.552C46.9846 14.16 47.8806 14.464 49.0806 14.464C50.2646 14.464 51.3846 14.168 52.4406 13.576L53.0406 15.256C51.9046 15.976 50.5206 16.336 48.8886 16.336ZM48.5526 5.224C46.6166 5.224 45.5766 6.52 45.4326 9.112H51.4086C51.3926 6.52 50.4406 5.224 48.5526 5.224Z" fill="#4A4A4A"/>
</svg>
