<svg width="12" height="12" viewBox="0 0 12 12" fill="none" xmlns="http://www.w3.org/2000/svg">
<path d="M3.5 9C2.95 9 2.505 9.45 2.505 10C2.505 10.55 2.95 11 3.5 11C4.05 11 4.5 10.55 4.5 10C4.5 9.45 4.05 9 3.5 9ZM0.5 1V2H1.5L3.3 5.795L2.625 7.02C2.545 7.16 2.5 7.325 2.5 7.5C2.5 8.05 2.95 8.5 3.5 8.5H9.5V7.5H3.71C3.64 7.5 3.585 7.445 3.585 7.375L3.6 7.315L4.05 6.5H7.775C8.15 6.5 8.48 6.295 8.65 5.985L10.44 2.74C10.48 2.67 10.5 2.585 10.5 2.5C10.5 2.225 10.275 2 10 2H2.605L2.135 1H0.5ZM8.5 9C7.95 9 7.505 9.45 7.505 10C7.505 10.55 7.95 11 8.5 11C9.05 11 9.5 10.55 9.5 10C9.5 9.45 9.05 9 8.5 9Z" fill="black"/>
</svg>
