<svg width="754" height="152" viewBox="0 0 754 152" fill="none" xmlns="http://www.w3.org/2000/svg">
<path d="M162.544 118V26.864H166.64V63.216C172.187 55.6213 179.909 51.824 189.808 51.824C196.635 51.824 201.669 53.7013 204.912 57.456C208.155 61.1253 209.776 66.8427 209.776 74.608V118H205.68V75.248C205.68 68.4213 204.357 63.4293 201.712 60.272C199.152 57.1147 195.013 55.536 189.296 55.536C180.592 55.536 173.04 59.4187 166.64 67.184V118H162.544ZM256.066 119.664C238.061 119.664 229.058 108.528 229.058 86.256C229.058 75.3333 231.319 66.8853 235.842 60.912C240.365 54.8533 246.765 51.824 255.042 51.824C263.063 51.824 269.165 54.5973 273.346 60.144C277.527 65.6907 279.618 73.712 279.618 84.208V86.896H233.282C233.538 106.181 241.218 115.824 256.322 115.824C263.746 115.824 269.805 113.819 274.498 109.808L276.418 113.136C271.298 117.488 264.514 119.664 256.066 119.664ZM255.042 55.664C248.301 55.664 243.053 58.096 239.298 62.96C235.543 67.7387 233.538 74.5227 233.282 83.312H275.394C275.309 74.352 273.517 67.5253 270.018 62.832C266.605 58.0533 261.613 55.664 255.042 55.664ZM298.669 118V53.488H302.381L302.765 63.216C308.312 55.6213 316.034 51.824 325.933 51.824C332.76 51.824 337.794 53.7013 341.037 57.456C344.28 61.1253 345.901 66.8427 345.901 74.608V118H341.805V75.248C341.805 68.4213 340.482 63.4293 337.837 60.272C335.277 57.1147 331.138 55.536 325.421 55.536C316.717 55.536 309.165 59.4187 302.765 67.184V118H298.669ZM369.919 118V53.488H373.631L374.015 65.264C379.562 57.1573 387.498 53.104 397.823 53.104H399.871V57.2H398.847C387.839 57.2 379.562 61.552 374.015 70.256V118H369.919ZM413.499 143.728C411.024 143.728 409.019 143.387 407.483 142.704V139.12C408.422 139.376 409.275 139.547 410.043 139.632C410.896 139.803 411.878 139.888 412.987 139.888C415.632 139.888 417.808 139.461 419.515 138.608C421.222 137.84 422.715 136.389 423.995 134.256C425.275 132.208 426.598 129.264 427.963 125.424L429.883 120.048L405.691 53.488H410.299L431.931 114.288L453.691 53.488H457.915L430.267 129.776C428.39 134.981 426.214 138.608 423.739 140.656C421.264 142.704 417.851 143.728 413.499 143.728Z" fill="#112B3D"/>
<path d="M493.631 119.664C488.767 119.664 484.116 119.152 479.679 118.128C475.242 117.189 471.444 115.824 468.287 114.032L469.951 110.32C476.607 113.819 484.5 115.568 493.631 115.568C501.567 115.568 507.37 114.075 511.039 111.088C514.794 108.016 516.671 103.237 516.671 96.752C516.671 91.2053 515.22 86.9387 512.319 83.952C509.503 80.9653 504.554 78.576 497.471 76.784L491.455 75.248C484.202 73.3707 478.954 70.7253 475.711 67.312C472.468 63.8987 470.847 59.248 470.847 53.36C470.847 46.0213 473.194 40.304 477.887 36.208C482.666 32.112 489.194 30.064 497.471 30.064C501.226 30.064 505.066 30.576 508.991 31.6C513.002 32.5387 516.372 33.8187 519.103 35.44L517.439 38.896C515.05 37.36 512.106 36.208 508.607 35.44C505.108 34.5867 501.396 34.16 497.471 34.16C490.218 34.16 484.714 35.7813 480.959 39.024C477.204 42.2667 475.327 46.96 475.327 53.104C475.327 57.968 476.65 61.7653 479.295 64.496C482.026 67.2267 486.634 69.4453 493.119 71.152L498.879 72.688C506.815 74.8213 512.49 77.7227 515.903 81.392C519.402 85.0613 521.151 90.0533 521.151 96.368C521.151 111.899 511.978 119.664 493.631 119.664ZM558.988 118.896C553.271 118.896 549.175 117.445 546.7 114.544C544.311 111.557 543.116 106.608 543.116 99.696V57.072H530.188V53.744L539.148 53.488C540.855 53.4027 542.007 53.104 542.604 52.592C543.287 51.9947 543.671 50.928 543.756 49.392L544.396 36.72H547.212V53.488H570.508V57.072H547.212V98.672C547.212 104.987 548.108 109.296 549.9 111.6C551.777 113.904 555.191 115.056 560.14 115.056C561.591 115.056 562.913 114.971 564.108 114.8C565.388 114.629 567.052 114.373 569.1 114.032V117.616C566.455 118.469 563.084 118.896 558.988 118.896ZM608.554 119.664C600.021 119.664 593.493 116.763 588.97 110.96C584.533 105.157 582.314 96.752 582.314 85.744C582.314 74.736 584.533 66.3307 588.97 60.528C593.493 54.7253 600.021 51.824 608.554 51.824C617.087 51.824 623.573 54.7253 628.01 60.528C632.533 66.3307 634.794 74.736 634.794 85.744C634.794 96.752 632.533 105.157 628.01 110.96C623.573 116.763 617.087 119.664 608.554 119.664ZM608.554 115.824C623.231 115.824 630.57 105.797 630.57 85.744C630.57 65.6907 623.231 55.664 608.554 55.664C593.877 55.664 586.538 65.6907 586.538 85.744C586.538 105.797 593.877 115.824 608.554 115.824ZM655.419 118V53.488H659.131L659.515 65.264C665.062 57.1573 672.998 53.104 683.323 53.104H685.371V57.2H684.347C673.339 57.2 665.062 61.552 659.515 70.256V118H655.419ZM723.191 119.664C705.186 119.664 696.183 108.528 696.183 86.256C696.183 75.3333 698.444 66.8853 702.967 60.912C707.49 54.8533 713.89 51.824 722.167 51.824C730.188 51.824 736.29 54.5973 740.471 60.144C744.652 65.6907 746.743 73.712 746.743 84.208V86.896H700.407C700.663 106.181 708.343 115.824 723.447 115.824C730.871 115.824 736.93 113.819 741.623 109.808L743.543 113.136C738.423 117.488 731.639 119.664 723.191 119.664ZM722.167 55.664C715.426 55.664 710.178 58.096 706.423 62.96C702.668 67.7387 700.663 74.5227 700.407 83.312H742.519C742.434 74.352 740.642 67.5253 737.143 62.832C733.73 58.0533 728.738 55.664 722.167 55.664Z" fill="#F55B42"/>
<path d="M0 18H120V129H0V18Z" fill="#112B3D"/>
<path d="M78.3925 111.624V88.072C78.3925 83.72 77.4965 83.464 73.9125 83.464H45.7525C43.8325 83.464 43.0645 84.104 43.0645 87.048C42.9365 93.192 42.8085 93.832 42.8085 96.264C42.9365 104.712 42.9365 105.992 42.9365 111.624C42.9365 115.464 39.8645 117 33.2085 117C27.3205 117 25.0165 115.08 25.0165 111.24C25.0165 108.424 25.2725 101.64 25.2725 86.664L25.7845 36.104C25.7845 30.984 28.9845 30.216 35.2565 30.216C42.2965 30.216 44.0885 31.624 44.0885 35.976C44.0885 39.432 43.7045 53.512 43.4485 66.568C43.4485 69.256 43.8325 69.768 46.5205 69.768C51.7685 69.768 64.3125 70.024 73.1445 70.024C78.3925 70.024 78.7765 69.384 78.7765 64.648C78.7765 55.432 79.0325 38.792 79.0325 35.976C79.0325 30.984 82.3605 29.96 88.3765 29.96C94.5205 29.96 96.9525 31.496 96.9525 35.72C96.9525 42.504 95.9285 87.048 96.0565 95.752C96.0565 104.2 96.1845 105.608 96.1845 111.368C96.1845 115.72 92.7285 117 86.9685 117C80.4405 117 78.3925 114.824 78.3925 111.624Z" fill="white"/>
</svg>
