<svg width="75" height="17" viewBox="0 0 75 17" fill="none" xmlns="http://www.w3.org/2000/svg">
<path d="M6.63806 16.336C2.51006 16.336 0.446063 14.2 0.446063 9.928C0.446063 7.816 0.942063 6.192 1.93406 5.056C2.94206 3.92 4.37406 3.352 6.23006 3.352C9.84606 3.352 11.6541 5.528 11.6541 9.88V10.96H3.99806C4.09406 11.872 4.37406 12.52 4.83806 12.904C5.30206 13.288 6.01406 13.48 6.97406 13.48C8.11006 13.48 9.23006 13.232 10.3341 12.736L11.1501 15.304C9.90206 15.992 8.39806 16.336 6.63806 16.336ZM6.18206 5.92C5.46206 5.92 4.92606 6.136 4.57406 6.568C4.22206 7 4.02206 7.728 3.97406 8.752H8.22206C8.20606 7.728 8.03806 7 7.71806 6.568C7.41406 6.136 6.90206 5.92 6.18206 5.92ZM14.1598 10.936V7.672H21.5518V10.936H14.1598ZM27.8709 16.312C27.0389 16.312 26.2709 16.216 25.5669 16.024C24.8789 15.832 24.2789 15.552 23.7669 15.184L24.1029 14.512C24.7109 14.912 25.2949 15.192 25.8549 15.352C26.4149 15.512 27.0869 15.592 27.8709 15.592C28.8629 15.592 29.6629 15.352 30.2709 14.872C30.8789 14.376 31.1829 13.728 31.1829 12.928C31.1829 12.16 30.9669 11.568 30.5349 11.152C30.1029 10.736 29.3669 10.424 28.3269 10.216L27.4389 10.024C26.2229 9.752 25.3669 9.376 24.8709 8.896C24.3749 8.416 24.1269 7.736 24.1269 6.856C24.1269 5.864 24.4869 5.072 25.2069 4.48C25.9429 3.888 26.9189 3.592 28.1349 3.592C29.5589 3.592 30.7509 3.88 31.7109 4.456L31.3989 5.08C30.4869 4.568 29.4069 4.312 28.1589 4.312C27.1669 4.312 26.3749 4.536 25.7829 4.984C25.2069 5.432 24.9189 6.04 24.9189 6.808C24.9189 7.496 25.1269 8.032 25.5429 8.416C25.9749 8.784 26.7189 9.08 27.7749 9.304L28.5429 9.472C29.8069 9.744 30.6949 10.136 31.2069 10.648C31.7189 11.16 31.9749 11.904 31.9749 12.88C31.9749 13.936 31.6069 14.776 30.8709 15.4C30.1509 16.008 29.1509 16.312 27.8709 16.312ZM39.1618 16.168C38.0898 16.168 37.3218 15.896 36.8578 15.352C36.4098 14.792 36.1858 13.864 36.1858 12.568V4.576H33.7618V3.952L35.4418 3.904C35.7618 3.888 35.9778 3.832 36.0898 3.736C36.2178 3.624 36.2898 3.424 36.3058 3.136L36.4258 0.759999H36.9538V3.904H41.3218V4.576H36.9538V12.376C36.9538 13.56 37.1218 14.368 37.4578 14.8C37.8098 15.232 38.4498 15.448 39.3778 15.448C39.6498 15.448 39.8978 15.432 40.1218 15.4C40.3618 15.368 40.6738 15.32 41.0578 15.256V15.928C40.5618 16.088 39.9298 16.168 39.1618 16.168ZM48.4554 16.312C46.8554 16.312 45.6314 15.768 44.7834 14.68C43.9514 13.592 43.5354 12.016 43.5354 9.952C43.5354 7.888 43.9514 6.312 44.7834 5.224C45.6314 4.136 46.8554 3.592 48.4554 3.592C50.0554 3.592 51.2714 4.136 52.1034 5.224C52.9514 6.312 53.3754 7.888 53.3754 9.952C53.3754 12.016 52.9514 13.592 52.1034 14.68C51.2714 15.768 50.0554 16.312 48.4554 16.312ZM48.4554 15.592C51.2074 15.592 52.5834 13.712 52.5834 9.952C52.5834 6.192 51.2074 4.312 48.4554 4.312C45.7034 4.312 44.3274 6.192 44.3274 9.952C44.3274 13.712 45.7034 15.592 48.4554 15.592ZM57.2426 16V3.904H57.9386L58.0106 6.112C59.0506 4.592 60.5386 3.832 62.4746 3.832H62.8586V4.6H62.6666C60.6026 4.6 59.0506 5.416 58.0106 7.048V16H57.2426ZM69.9499 16.312C66.5739 16.312 64.8859 14.224 64.8859 10.048C64.8859 8 65.3099 6.416 66.1579 5.296C67.0059 4.16 68.2059 3.592 69.7579 3.592C71.2619 3.592 72.4059 4.112 73.1899 5.152C73.9739 6.192 74.3659 7.696 74.3659 9.664V10.168H65.6779C65.7259 13.784 67.1659 15.592 69.9979 15.592C71.3899 15.592 72.5259 15.216 73.4059 14.464L73.7659 15.088C72.8059 15.904 71.5339 16.312 69.9499 16.312ZM69.7579 4.312C68.4939 4.312 67.5099 4.768 66.8059 5.68C66.1019 6.576 65.7259 7.848 65.6779 9.496H73.5739C73.5579 7.816 73.2219 6.536 72.5659 5.656C71.9259 4.76 70.9899 4.312 69.7579 4.312Z" fill="#4A4A4A"/>
</svg>
